<svg width="25" height="24" viewBox="0 0 25 24" fill="none" xmlns="http://www.w3.org/2000/svg">
<path d="M12.5 18H4.5C3.96957 18 3.46086 17.7893 3.08579 17.4142C2.71071 17.0391 2.5 16.5304 2.5 16V8C2.5 7.46957 2.71071 6.96086 3.08579 6.58579C3.46086 6.21071 3.96957 6 4.5 6H20.5C21.0304 6 21.5391 6.21071 21.9142 6.58579C22.2893 6.96086 22.5 7.46957 22.5 8V13" stroke="black" stroke-width="1.5" stroke-linecap="round" stroke-linejoin="round"/>
<path d="M16.5 19L19.5 22L22.5 19" stroke="black" stroke-width="1.5" stroke-linecap="round" stroke-linejoin="round"/>
<path d="M18.5 12H18.51" stroke="black" stroke-width="1.5" stroke-linecap="round" stroke-linejoin="round"/>
<path d="M19.5 16V22" stroke="black" stroke-width="1.5" stroke-linecap="round" stroke-linejoin="round"/>
<path d="M6.5 12H6.51" stroke="black" stroke-width="1.5" stroke-linecap="round" stroke-linejoin="round"/>
<path d="M12.5 14C13.6046 14 14.5 13.1046 14.5 12C14.5 10.8954 13.6046 10 12.5 10C11.3954 10 10.5 10.8954 10.5 12C10.5 13.1046 11.3954 14 12.5 14Z" stroke="black" stroke-width="1.5" stroke-linecap="round" stroke-linejoin="round"/>
</svg>
